<svg xmlns="http://www.w3.org/2000/svg" viewBox="0 0 400 400" fill="none">
  <!-- Background -->
  <rect x="50" y="60" width="300" height="280" rx="20" fill="#FF6B35" opacity="0.1"/>

  <!-- T-Shirt Shape -->
  <path d="M100 100 L150 80 L170 100 L180 95 C190 90 210 90 220 95 L230 100 L250 80 L300 100 L280 160 L250 150 L250 300 L150 300 L150 150 L120 160 Z" fill="#FF6B35" stroke="#E85A2A" stroke-width="3"/>

  <!-- Collar -->
  <path d="M170 100 C180 110 220 110 230 100" stroke="#E85A2A" stroke-width="3" fill="none"/>

  <!-- Sleeve Details -->
  <line x1="150" y1="150" x2="120" y2="160" stroke="#E85A2A" stroke-width="2"/>
  <line x1="250" y1="150" x2="280" y2="160" stroke="#E85A2A" stroke-width="2"/>

  <!-- CBL Logo Circle -->
  <circle cx="200" cy="190" r="40" fill="#E85A2A" opacity="0.3"/>
  <text x="200" y="200" text-anchor="middle" font-family="Inter, Arial, sans-serif" font-size="24" font-weight="800" fill="white">CBL</text>

  <!-- Jingga Text -->
  <text x="200" y="250" text-anchor="middle" font-family="Inter, Arial, sans-serif" font-size="14" font-weight="600" fill="white" opacity="0.7">JINGGA</text>

  <!-- Highlight -->
  <ellipse cx="160" cy="130" rx="20" ry="15" fill="white" opacity="0.15"/>

  <!-- Placeholder Text -->
  <text x="200" y="370" text-anchor="middle" font-family="Inter, Arial, sans-serif" font-size="12" fill="#888">Replace with actual image</text>
</svg>
